<svg xmlns="http://www.w3.org/2000/svg" fill="none" viewBox="4 5.25 38.75 37.5"><defs><radialGradient id="c" cx="0" cy="0" r="1" gradientTransform="rotate(135 12.364 14.57)scale(37.6453 63.3621)" gradientUnits="userSpaceOnUse"><stop offset=".152" stop-color="#AA1D2D"/><stop offset=".381" stop-color="#D12B18" stop-opacity=".44"/><stop offset=".602" stop-color="#FF3C00" stop-opacity="0"/></radialGradient><radialGradient id="d" cx="0" cy="0" r="1" gradientTransform="matrix(32.26747 -15.24119 27.61163 58.45722 -1.294 39.241)" gradientUnits="userSpaceOnUse"><stop offset=".407" stop-color="#FF66FB"/><stop offset="1" stop-color="#EA3D01" stop-opacity="0"/></radialGradient><radialGradient id="f" cx="0" cy="0" r="1" gradientTransform="rotate(11.835 -116.167 113.704)scale(24.2391 23.1082)" gradientUnits="userSpaceOnUse"><stop offset=".786" stop-color="#FFA05C" stop-opacity="0"/><stop offset=".905" stop-color="#FFCE84"/></radialGradient><radialGradient id="g" cx="0" cy="0" r="1" gradientTransform="rotate(-33.198 52.11 -29.492)scale(24.4755 23.4062)" gradientUnits="userSpaceOnUse"><stop offset=".295" stop-color="#FF99E9"/><stop offset=".728" stop-color="#FF99E9" stop-opacity="0"/></radialGradient><radialGradient id="h" cx="0" cy="0" r="1" gradientTransform="matrix(17.14288 -19.62634 17.9243 15.6562 21.904 26.581)" gradientUnits="userSpaceOnUse"><stop stop-color="#FD6EF9"/><stop offset=".637" stop-color="#F94"/><stop offset=".852" stop-color="#FCC479"/></radialGradient><radialGradient id="i" cx="0" cy="0" r="1" gradientTransform="matrix(-1.93639 13.12129 -29.65432 -4.37627 20.199 7.728)" gradientUnits="userSpaceOnUse"><stop offset=".144" stop-color="#FF8D13"/><stop offset=".537" stop-color="#FF7F29" stop-opacity="0"/></radialGradient><radialGradient id="j" cx="0" cy="0" r="1" gradientTransform="rotate(45 -25.764 16.326)scale(22.6274)" gradientUnits="userSpaceOnUse"><stop stop-color="#F8193E"/><stop offset=".939" stop-color="#920616"/></radialGradient><radialGradient id="k" cx="0" cy="0" r="1" gradientTransform="matrix(0 11.2 -12.75 0 11.998 32.6)" gradientUnits="userSpaceOnUse"><stop offset=".576" stop-color="#FFB055" stop-opacity="0"/><stop offset=".974" stop-color="#FFF2BE"/></radialGradient><linearGradient id="b" x1="22.096" x2="-.876" y1="4.056" y2="26.033" gradientUnits="userSpaceOnUse"><stop offset=".058" stop-color="#FF7F48"/><stop offset="1" stop-color="#E5495B"/></linearGradient><linearGradient id="e" x1="27.549" x2="47.729" y1="28.172" y2="13.216" gradientUnits="userSpaceOnUse"><stop offset=".311" stop-color="#FF6E30"/><stop offset=".635" stop-color="#FFA05C"/></linearGradient><clipPath id="a"><ellipse cx="23.998" cy="24" rx="18.748" ry="18.75"/></clipPath></defs><g clip-path="url(#a)"><circle cx="23.998" cy="24" r="19.5" fill="url(#b)"/><circle cx="23.998" cy="24" r="19.5" fill="url(#c)"/><circle cx="23.998" cy="24" r="19.5" fill="url(#d)" fill-opacity=".5"/><path fill="url(#e)" d="M24.001 5.25c10.354 0 18.748 8.395 18.748 18.75 0 3.445-.93 6.671-2.552 9.445l.305-.675c1.855-4.12-1.16-8.781-5.679-8.778l-7.462.006a3.36 3.36 0 0 1-3.36-3.357v-7.476c0-4.52-4.667-7.533-8.786-5.67l-.6.27a18.66 18.66 0 0 1 9.386-2.515"/><path fill="url(#f)" d="M24.001 5.25c10.354 0 18.748 8.395 18.748 18.75 0 3.445-.93 6.671-2.552 9.445l.305-.675c1.855-4.12-1.16-8.781-5.679-8.778l-7.462.006a3.36 3.36 0 0 1-3.36-3.357v-7.476c0-4.52-4.667-7.533-8.786-5.67l-.6.27a18.66 18.66 0 0 1 9.386-2.515"/><path fill="url(#g)" fill-opacity=".8" d="M24.001 5.25c10.354 0 18.748 8.395 18.748 18.75 0 3.445-.93 6.671-2.552 9.445l.305-.675c1.855-4.12-1.16-8.781-5.679-8.778l-7.462.006a3.36 3.36 0 0 1-3.36-3.357v-7.476c0-4.52-4.667-7.533-8.786-5.67l-.6.27a18.66 18.66 0 0 1 9.386-2.515"/><path fill="url(#h)" d="M24.001 5.25c10.354 0 18.748 8.395 18.748 18.75 0 3.445-.93 6.671-2.552 9.445l.305-.675c1.855-4.12-1.16-8.781-5.679-8.778l-7.462.006a3.36 3.36 0 0 1-3.36-3.357v-7.476c0-4.52-4.667-7.533-8.786-5.67l-.6.27a18.66 18.66 0 0 1 9.386-2.515"/><path fill="url(#i)" d="M24.001 5.25c10.354 0 18.748 8.395 18.748 18.75 0 3.445-.93 6.671-2.552 9.445l.305-.675c1.855-4.12-1.16-8.781-5.679-8.778l-7.462.006a3.36 3.36 0 0 1-3.36-3.357v-7.476c0-4.52-4.667-7.533-8.786-5.67l-.6.27a18.66 18.66 0 0 1 9.386-2.515"/></g><rect width="16" height="16" x="4" y="23" fill="url(#j)" rx="3.25"/><rect width="16" height="16" x="4" y="23" fill="url(#k)" fill-opacity=".3" rx="3.25"/><path fill="#fff" d="M11.22 32.594v2.977H9.16V26.43h3.18q1.708 0 2.6.745.9.746.899 2.213 0 1.51-1.007 2.359-1 .848-2.69.848zm0-4.584v3.003h.86q.765 0 1.179-.402t.414-1.154q0-.694-.408-1.071-.402-.376-1.153-.376z"/></svg>